G04 #@! TF.GenerationSoftware,KiCad,Pcbnew,7.0.8*
G04 #@! TF.CreationDate,2023-11-06T21:04:00-05:00*
G04 #@! TF.ProjectId,dance,64616e63-652e-46b6-9963-61645f706362,1.0*
G04 #@! TF.SameCoordinates,Original*
G04 #@! TF.FileFunction,Profile,NP*
%FSLAX46Y46*%
G04 Gerber Fmt 4.6, Leading zero omitted, Abs format (unit mm)*
G04 Created by KiCad (PCBNEW 7.0.8) date 2023-11-06 21:04:00*
%MOMM*%
%LPD*%
G01*
G04 APERTURE LIST*
G04 #@! TA.AperFunction,Profile*
%ADD10C,0.150000*%
G04 #@! TD*
G04 APERTURE END LIST*
D10*
X175768000Y-133654800D02*
X188214000Y-112014000D01*
X160477200Y-125984000D02*
X174288668Y-133959600D01*
X85910703Y-121246468D02*
X143154400Y-121259600D01*
X159107097Y-44407532D02*
X86800000Y-44069142D01*
X169800000Y-55800000D02*
X186400000Y-55800000D01*
X168005000Y-53538400D02*
X168000000Y-54000000D01*
X174288670Y-133959592D02*
G75*
G03*
X175768000Y-133654800I440030J1606692D01*
G01*
X77012800Y-93776800D02*
X77012800Y-110744000D01*
X77000000Y-53600000D02*
X77012800Y-76708000D01*
X188200000Y-57600000D02*
X188214000Y-112014000D01*
X86130868Y-44069142D02*
X86800000Y-44069142D01*
X168004985Y-53538401D02*
G75*
G03*
X159107097Y-44407533I-9504985J-361599D01*
G01*
X168000000Y-54000000D02*
G75*
G03*
X169800000Y-55800000I1800000J0D01*
G01*
X77012815Y-112115599D02*
G75*
G03*
X85910703Y-121246467I9504985J361599D01*
G01*
X188200000Y-57600000D02*
G75*
G03*
X186400000Y-55800000I-1800000J0D01*
G01*
X86130868Y-44069143D02*
G75*
G03*
X77000001Y-52967045I361632J-9505017D01*
G01*
X77012800Y-112115600D02*
X77012800Y-110744000D01*
X77000000Y-52967045D02*
X77000000Y-53600000D01*
X77012800Y-76708000D02*
X77012800Y-93776800D01*
X143154400Y-121259600D02*
X160477200Y-125984000D01*
M02*
