G04 #@! TF.GenerationSoftware,KiCad,Pcbnew,7.0.8*
G04 #@! TF.CreationDate,2023-11-12T13:23:08-05:00*
G04 #@! TF.ProjectId,dancev2,64616e63-6576-4322-9e6b-696361645f70,1.0*
G04 #@! TF.SameCoordinates,Original*
G04 #@! TF.FileFunction,Profile,NP*
%FSLAX46Y46*%
G04 Gerber Fmt 4.6, Leading zero omitted, Abs format (unit mm)*
G04 Created by KiCad (PCBNEW 7.0.8) date 2023-11-12 13:23:08*
%MOMM*%
%LPD*%
G01*
G04 APERTURE LIST*
G04 #@! TA.AperFunction,Profile*
%ADD10C,0.150000*%
G04 #@! TD*
G04 APERTURE END LIST*
D10*
X160477200Y-125984000D02*
X174288668Y-133959600D01*
X130310000Y-44036200D02*
X113530000Y-44049553D01*
X85910703Y-121246468D02*
X143154400Y-121259600D01*
X94515447Y-62020847D02*
G75*
G03*
X95015447Y-61520847I-47J500047D01*
G01*
X148793180Y-51069020D02*
G75*
G03*
X148293200Y-50569020I-499980J20D01*
G01*
X77419200Y-61976000D02*
G75*
G03*
X76962000Y-62433200I0J-457200D01*
G01*
X174288670Y-133959592D02*
G75*
G03*
X175768000Y-133654800I440030J1606692D01*
G01*
X95017120Y-50506820D02*
X95015447Y-61520847D01*
X95517120Y-50006820D02*
G75*
G03*
X95017120Y-50506820I-20J-499980D01*
G01*
X113030000Y-44549553D02*
X113047120Y-49506820D01*
X166850402Y-53455020D02*
G75*
G03*
X166360498Y-53055000I-489902J-99980D01*
G01*
X112547120Y-50006820D02*
G75*
G03*
X113047120Y-49506820I-20J500020D01*
G01*
X77012800Y-76708000D02*
X77012800Y-93776800D01*
X166850386Y-53455024D02*
G75*
G03*
X167330400Y-53815020I480014J140024D01*
G01*
X113530000Y-44049500D02*
G75*
G03*
X113030000Y-44549553I100J-500100D01*
G01*
X148793200Y-52569020D02*
X148793200Y-51069020D01*
X77012815Y-112115599D02*
G75*
G03*
X85910703Y-121246467I9504985J361599D01*
G01*
X130810000Y-44536200D02*
G75*
G03*
X130310000Y-44036200I-500000J0D01*
G01*
X94515447Y-62020847D02*
X77419200Y-61976000D01*
X130810000Y-50053400D02*
X130810000Y-44536200D01*
X112547120Y-50006820D02*
X95517120Y-50006820D01*
X188120000Y-54305000D02*
G75*
G03*
X187620000Y-53805000I-500000J0D01*
G01*
X77012800Y-112115600D02*
X77012800Y-110744000D01*
X148293200Y-50569020D02*
X131310000Y-50553400D01*
X166360498Y-53055000D02*
X149293200Y-53069020D01*
X76962000Y-62433200D02*
X77012800Y-76708000D01*
X143154400Y-121259600D02*
X160477200Y-125984000D01*
X148793180Y-52569020D02*
G75*
G03*
X149293200Y-53069020I500020J20D01*
G01*
X188120000Y-54305000D02*
X188214000Y-112014000D01*
X175768000Y-133654800D02*
X188214000Y-112014000D01*
X187620000Y-53805000D02*
X167330400Y-53815020D01*
X130810000Y-50053400D02*
G75*
G03*
X131310000Y-50553400I500000J0D01*
G01*
X77012800Y-93776800D02*
X77012800Y-110744000D01*
M02*
