M48
; DRILL file {KiCad 7.0.8} date Sun Nov 12 13:23:05 2023
; FORMAT={-:-/ absolute / metric / decimal}
; #@! TF.CreationDate,2023-11-12T13:23:05-05:00
; #@! TF.GenerationSoftware,Kicad,Pcbnew,7.0.8
; #@! TF.FileFunction,Plated,1,2,PTH
FMAT,2
METRIC
; #@! TA.AperFunction,Plated,PTH,ComponentDrill
T1C0.305
; #@! TA.AperFunction,Plated,PTH,ViaDrill
T2C0.400
; #@! TA.AperFunction,Plated,PTH,ComponentDrill
T3C1.000
; #@! TA.AperFunction,Plated,PTH,ComponentDrill
T4C1.100
; #@! TA.AperFunction,Plated,PTH,ComponentDrill
T5C2.200
%
G90
G05
T1
X177.124Y-62.81
X179.324Y-62.81
T2
X77.724Y-62.738
X82.635Y-76.35
X82.635Y-93.35
X82.635Y-110.35
X89.662Y-84.455
X92.202Y-110.998
X92.253Y-93.878
X93.878Y-98.603
X94.185Y-74.15
X94.185Y-91.15
X94.185Y-108.15
X94.59Y-93.777
X100.635Y-64.35
X100.635Y-81.35
X100.635Y-98.35
X106.934Y-92.456
X111.15Y-52.375
X111.303Y-86.614
X111.76Y-70.206
X112.185Y-62.15
X112.185Y-79.15
X112.185Y-96.15
X112.522Y-99.822
X118.11Y-68.834
X118.48Y-96.334
X118.635Y-58.35
X118.635Y-75.35
X118.635Y-92.35
X121.768Y-65.43
X125.222Y-86.106
X125.735Y-109.24
X129.083Y-80.874
X129.388Y-46.33
X129.489Y-63.652
X130.185Y-56.15
X130.185Y-73.15
X130.185Y-90.15
X131.572Y-65.024
X133.604Y-99.568
X136.635Y-64.97
X136.635Y-81.97
X136.635Y-98.975
X137.285Y-107.04
X138.532Y-72.746
X147.038Y-109.816
X147.218Y-100.99
X147.828Y-51.562
X147.98Y-107.747
X148.031Y-53.442
X148.133Y-87.071
X148.185Y-62.77
X148.185Y-79.77
X148.185Y-96.775
X149.352Y-101.854
X154.635Y-67.35
X154.635Y-84.35
X154.635Y-101.35
X156.718Y-75.946
X157.251Y-115.291
X158.763Y-110.68
X161.036Y-78.486
X165.1Y-78.486
X165.913Y-89.408
X166.116Y-55.524
X166.116Y-71.882
X166.116Y-73.863
X166.185Y-65.15
X166.185Y-82.15
X166.185Y-99.15
X166.83Y-104.496
X167.234Y-67.818
X167.64Y-58.928
X168.148Y-76.962
X171.145Y-112.979
X172.212Y-92.71
X174.244Y-64.008
X174.244Y-66.04
X174.244Y-67.818
X174.244Y-70.358
X174.244Y-72.898
X174.244Y-74.168
X174.244Y-75.438
X174.244Y-76.708
X174.244Y-77.978
X174.244Y-80.518
X174.244Y-81.788
X174.244Y-83.058
X174.244Y-85.598
X174.244Y-92.202
X174.866Y-114.795
X175.006Y-65.024
X175.006Y-69.088
X175.514Y-58.42
X175.55Y-109.749
X175.73Y-71.628
X177.292Y-92.202
X178.054Y-88.1
X178.562Y-97.282
X178.562Y-100.838
X181.61Y-87.376
X181.863Y-86.368
X181.864Y-57.15
X181.864Y-59.436
X181.864Y-60.96
X181.864Y-64.008
X181.864Y-65.278
X181.864Y-69.088
X181.864Y-71.628
X181.864Y-74.168
X181.864Y-76.708
X181.864Y-79.248
X181.864Y-81.788
X181.864Y-84.328
X184.531Y-96.901
X184.658Y-99.568
X184.658Y-101.346
X186.69Y-59.69
T3
X82.327Y-81.229
X82.327Y-98.247
X82.428Y-64.313
X89.479Y-81.229
X89.479Y-98.247
X89.58Y-64.313
X100.31Y-69.342
X100.412Y-86.309
X100.513Y-52.273
X107.462Y-69.342
X107.564Y-86.309
X107.665Y-52.273
X118.395Y-63.348
X118.395Y-80.315
X118.496Y-46.228
X125.547Y-63.348
X125.547Y-80.315
X125.648Y-46.228
X130.384Y-119.075
X136.378Y-69.901
X136.429Y-53.289
X136.48Y-86.97
X137.536Y-119.075
X143.53Y-69.901
X143.581Y-53.289
X143.632Y-86.97
X149.06Y-120.535
X154.412Y-55.423
X154.514Y-89.357
X154.717Y-72.492
X155.968Y-122.386
X161.564Y-55.423
X161.666Y-89.357
X161.869Y-72.492
X178.17Y-124.992
X181.746Y-118.799
T4
X170.434Y-58.42
X170.434Y-60.96
X170.434Y-63.5
X170.434Y-66.04
X170.434Y-68.58
X170.434Y-71.12
X170.434Y-73.66
X170.434Y-76.2
X170.434Y-78.74
X170.434Y-81.28
X170.434Y-83.82
X170.434Y-86.36
X172.974Y-90.932
X175.514Y-90.932
X178.054Y-90.932
X180.594Y-90.932
X183.134Y-90.932
X185.674Y-58.42
X185.674Y-60.96
X185.674Y-63.5
X185.674Y-66.04
X185.674Y-68.58
X185.674Y-71.12
X185.674Y-73.66
X185.674Y-76.2
X185.674Y-78.74
X185.674Y-81.28
X185.674Y-83.82
X185.674Y-86.36
T5
X95.0Y-66.802
X95.0Y-83.82
X123.952Y-104.14
X148.971Y-69.85
X167.005Y-110.363
X171.323Y-96.901
X185.42Y-106.426
T0
M30
